<?xml version="1.0" encoding="utf-8"?>
<!-- Generator: Adobe Illustrator 25.2.1, SVG Export Plug-In . SVG Version: 6.00 Build 0)  -->
<svg version="1.1" id="Capa_1" xmlns="http://www.w3.org/2000/svg" xmlns:xlink="http://www.w3.org/1999/xlink" x="0px" y="0px"
	 viewBox="0 0 512 512" style="enable-background:new 0 0 512 512;" xml:space="preserve">
<style type="text/css">
	.st0{fill:url(#SVGID_1_);}
	.st1{fill:url(#SVGID_2_);}
	.st2{fill:#FFFFFF;}
	.st3{fill:url(#SVGID_3_);}
</style>
<g>
	<g>
		<g>
			<linearGradient id="SVGID_1_" gradientUnits="userSpaceOnUse" x1="48.8858" y1="256" x2="463.1141" y2="256">
				<stop  offset="0" style="stop-color:#FFFFFF"/>
				<stop  offset="1" style="stop-color:#000000"/>
			</linearGradient>
			<path class="st0" d="M426,89C386.9,32.5,324.9,0,256,0S125.1,32.5,86.1,89C47.2,145.3,38.2,216.6,62,279.5
				c6.4,17.2,16.5,33.9,30,49.5l150.4,176.6c3.4,4,8.4,6.3,13.6,6.3s10.2-2.3,13.6-6.3L420,329.1c13.6-15.7,23.7-32.4,30-49.5
				C473.8,216.6,464.8,145.3,426,89z M416.5,267.1c-4.9,13.2-12.8,26.2-23.6,38.7c0,0-0.1,0.1-0.1,0.1L256,466.5L119.2,305.8
				c-10.8-12.5-18.7-25.5-23.7-38.8c-19.7-52.1-12.2-111,20-157.6C147.8,62.6,199,35.8,256,35.8c57,0,108.2,26.8,140.5,73.6
				C428.7,156,436.2,214.9,416.5,267.1z"/>
		</g>
	</g>
	<g>
		<g>
			<linearGradient id="SVGID_2_" gradientUnits="userSpaceOnUse" x1="48.8858" y1="256" x2="463.1141" y2="256">
				<stop  offset="0" style="stop-color:#5845FF"/>
				<stop  offset="6.182189e-02" style="stop-color:#5E45FE"/>
				<stop  offset="0.1427" style="stop-color:#6E46F9"/>
				<stop  offset="0.2343" style="stop-color:#8946F2"/>
				<stop  offset="0.3336" style="stop-color:#AF48E9"/>
				<stop  offset="0.4381" style="stop-color:#DF49DC"/>
				<stop  offset="0.5" style="stop-color:#FF4AD4"/>
				<stop  offset="0.5619" style="stop-color:#FE5AB4"/>
				<stop  offset="0.6664" style="stop-color:#FE7184"/>
				<stop  offset="0.7657" style="stop-color:#FD845E"/>
				<stop  offset="0.8573" style="stop-color:#FC9143"/>
				<stop  offset="0.9382" style="stop-color:#FC9933"/>
				<stop  offset="1" style="stop-color:#FC9C2D"/>
			</linearGradient>
			<path class="st1" d="M426,89C386.9,32.5,324.9,0,256,0S125.1,32.5,86.1,89C47.2,145.3,38.2,216.6,62,279.5
				c6.4,17.2,16.5,33.9,30,49.5l150.4,176.6c3.4,4,8.4,6.3,13.6,6.3s10.2-2.3,13.6-6.3L420,329.1c13.6-15.7,23.7-32.4,30-49.5
				C473.8,216.6,464.8,145.3,426,89z M416.5,267.1c-4.9,13.2-12.8,26.2-23.6,38.7c0,0-0.1,0.1-0.1,0.1L256,466.5L119.2,305.8
				c-10.8-12.5-18.7-25.5-23.7-38.8c-19.7-52.1-12.2-111,20-157.6C147.8,62.6,199,35.8,256,35.8c57,0,108.2,26.8,140.5,73.6
				C428.7,156,436.2,214.9,416.5,267.1z"/>
		</g>
	</g>
</g>
<g>
	<g>
		<g>
			<path class="st2" d="M256,106.2c-55.3,0-100.3,45-100.3,100.3s45,100.3,100.3,100.3s100.3-45,100.3-100.3
				C356.3,151.2,311.3,106.2,256,106.2z M256,270.9c-35.5,0-64.4-28.9-64.4-64.4S220.5,142,256,142s64.4,28.9,64.4,64.4
				S291.5,270.9,256,270.9z"/>
		</g>
	</g>
	<g>
		<g>
			<linearGradient id="SVGID_3_" gradientUnits="userSpaceOnUse" x1="155.754" y1="206.471" x2="356.258" y2="206.471">
				<stop  offset="0" style="stop-color:#5845FF"/>
				<stop  offset="6.182189e-02" style="stop-color:#5E45FE"/>
				<stop  offset="0.1427" style="stop-color:#6E46F9"/>
				<stop  offset="0.2343" style="stop-color:#8946F2"/>
				<stop  offset="0.3336" style="stop-color:#AF48E9"/>
				<stop  offset="0.4381" style="stop-color:#DF49DC"/>
				<stop  offset="0.5" style="stop-color:#FF4AD4"/>
				<stop  offset="0.5619" style="stop-color:#FE5AB4"/>
				<stop  offset="0.6664" style="stop-color:#FE7184"/>
				<stop  offset="0.7657" style="stop-color:#FD845E"/>
				<stop  offset="0.8573" style="stop-color:#FC9143"/>
				<stop  offset="0.9382" style="stop-color:#FC9933"/>
				<stop  offset="1" style="stop-color:#FC9C2D"/>
			</linearGradient>
			<path class="st3" d="M256,106.2c-55.3,0-100.3,45-100.3,100.3s45,100.3,100.3,100.3s100.3-45,100.3-100.3
				C356.3,151.2,311.3,106.2,256,106.2z M256,270.9c-35.5,0-64.4-28.9-64.4-64.4S220.5,142,256,142s64.4,28.9,64.4,64.4
				S291.5,270.9,256,270.9z"/>
		</g>
	</g>
</g>
</svg>
