<svg xmlns="http://www.w3.org/2000/svg" viewBox="0 0 311.4 120"><defs><style>.cls-1{fill:#0d0d0d;}.cls-2{fill:#ccc;}.cls-3{fill:none;stroke:#ccc;stroke-miterlimit:10;}</style></defs><g id="Camada_2" data-name="Camada 2"><g id="Camada_1-2" data-name="Camada 1"><path class="cls-1" d="M309.63,62.07s-10.09,31-24.95,49.85a9.13,9.13,0,0,1-2.91,2.44c-3.64,1.92-12.94,5.59-30.75,5.51,0,0-22.25,1.37-34.3-4.71-10-5.06-61-5.35-61-5.35h0s-51,.29-61,5.35c-12.05,6.08-34.3,4.71-34.3,4.71-17.8.08-27.1-3.59-30.74-5.51a9.06,9.06,0,0,1-2.92-2.44C11.86,93.09,1.77,62.07,1.77,62.07S-.53,54,.11,48.89c.81-6.51,9-15.44,9-15.44C29.71,10.94,82.46,0,82.46,0c4.5,8.36,20.59,7.72,20.59,7.72l52.64-.64h0l52.64.64s16.09.64,20.59-7.72c0,0,52.76,10.94,73.34,33.45,0,0,8.2,8.93,9,15.44C311.93,54,309.63,62.07,309.63,62.07Z"/><rect class="cls-2" x="31.92" y="30.31" width="0.97" height="4" rx="0.48" transform="translate(-13.35 32.37) rotate(-45)"/><rect class="cls-2" x="95.52" y="93.9" width="0.97" height="4" rx="0.48" transform="translate(-39.69 95.98) rotate(-45)"/><rect class="cls-2" x="31.92" y="93.87" width="0.97" height="4" rx="0.48" transform="translate(77.28 5.17) rotate(45)"/><rect class="cls-2" x="95.5" y="30.29" width="0.97" height="4" rx="0.48" transform="translate(50.95 -58.41) rotate(45)"/><rect class="cls-2" x="63.33" y="17.11" width="0.97" height="4" rx="0.48"/><rect class="cls-2" x="108.7" y="62.09" width="0.97" height="4" rx="0.48" transform="translate(45.1 173.28) rotate(-90)"/><rect class="cls-2" x="18.7" y="62.09" width="0.97" height="4" rx="0.48" transform="translate(-44.9 83.28) rotate(-90)"/><circle class="cls-3" cx="64.18" cy="64.09" r="46.5"/><circle class="cls-3" cx="64.18" cy="64.09" r="31.5"/><rect class="cls-2" x="215.12" y="30.31" width="0.97" height="4" rx="0.48" transform="translate(40.31 161.92) rotate(-45)"/><rect class="cls-2" x="278.73" y="93.9" width="0.97" height="4" rx="0.48" transform="translate(13.97 225.52) rotate(-45)"/><rect class="cls-2" x="215.13" y="93.87" width="0.97" height="4" rx="0.48" transform="translate(130.94 -124.38) rotate(45)"/><rect class="cls-2" x="278.71" y="30.29" width="0.97" height="4" rx="0.48" transform="translate(104.61 -187.96) rotate(45)"/><rect class="cls-2" x="246.54" y="17.11" width="0.97" height="4" rx="0.48"/><rect class="cls-2" x="291.91" y="62.09" width="0.97" height="4" rx="0.48" transform="translate(228.3 356.49) rotate(-90)"/><rect class="cls-2" x="201.91" y="62.09" width="0.97" height="4" rx="0.48" transform="translate(138.3 266.49) rotate(-90)"/><circle class="cls-3" cx="247.39" cy="64.09" r="46.5"/><circle class="cls-3" cx="247.39" cy="64.09" r="31.5"/></g></g></svg>