<svg xmlns="http://www.w3.org/2000/svg" xmlns:xlink="http://www.w3.org/1999/xlink" viewBox="0 0 295.33 219.11"><defs><style>.cls-1{fill:url(#Gradiente_sem_nome_39);}</style><linearGradient id="Gradiente_sem_nome_39" y1="109.56" x2="295.33" y2="109.56" gradientUnits="userSpaceOnUse"><stop offset="0" stop-color="#ffca2a"/><stop offset="1" stop-color="#fc9c2d"/></linearGradient></defs><g id="Camada_2" data-name="Camada 2"><g id="Capa_1" data-name="Capa 1"><path class="cls-1" d="M291.42,104.27,258.28,79.11A9.9,9.9,0,0,0,242.4,87v15.39h-9.8V86.83a9.89,9.89,0,0,0-9.89-9.9H203V40.19a9.89,9.89,0,0,0-9.89-9.9H162.34V19.79h8.29a9.9,9.9,0,0,0,0-19.79H106.71a9.9,9.9,0,1,0,0,19.79H115v10.5H76.75a9.9,9.9,0,0,0-9.9,9.9V59.5H47.53a9.89,9.89,0,0,0-9.9,9.89V92H19.79V64A9.9,9.9,0,0,0,0,64V167.44a9.9,9.9,0,1,0,19.79,0V139.37H37.64v23.2a9.89,9.89,0,0,0,9.89,9.9H72.41l34.91,43a9.88,9.88,0,0,0,7.68,3.66H222.71a9.89,9.89,0,0,0,9.89-9.89V196.14h9.8v13.08a9.91,9.91,0,0,0,5.76,9,9.93,9.93,0,0,0,10.58-1.48l33.14-28.41a9.89,9.89,0,0,0,3.45-7.51V112.15A9.91,9.91,0,0,0,291.42,104.27Z"/></g></g></svg>