<svg xmlns="http://www.w3.org/2000/svg" xmlns:xlink="http://www.w3.org/1999/xlink" viewBox="0 0 268.6 383.4"><defs><style>.cls-1{fill:url(#Nova_amostra_de_gradie_copiar);}</style><linearGradient id="Nova_amostra_de_gradie_copiar" y1="191.7" x2="268.6" y2="191.7" gradientUnits="userSpaceOnUse"><stop offset="0" stop-color="#5845ff"/><stop offset="0.06" stop-color="#5e45fe"/><stop offset="0.14" stop-color="#6e46f9"/><stop offset="0.23" stop-color="#8946f2"/><stop offset="0.33" stop-color="#af48e9"/><stop offset="0.44" stop-color="#df49dc"/><stop offset="0.5" stop-color="#ff4ad4"/><stop offset="0.56" stop-color="#fe5ab4"/><stop offset="0.67" stop-color="#fe7184"/><stop offset="0.77" stop-color="#fd845e"/><stop offset="0.86" stop-color="#fc9143"/><stop offset="0.94" stop-color="#fc9933"/><stop offset="1" stop-color="#fc9c2d"/></linearGradient></defs><g id="Camada_2" data-name="Camada 2"><g id="Capa_1" data-name="Capa 1"><path class="cls-1" d="M215.8,106.9C188.6,62,158.4,23.2,142.8,4.1a10.86,10.86,0,0,0-17,0C110.2,23.3,80,62.1,52.8,107,17.8,164.8,0,212.6,0,249.1c0,74.1,60.3,134.3,134.3,134.3S268.6,323.1,268.6,249C268.6,212.5,250.8,164.7,215.8,106.9Zm-63.1,227a97.83,97.83,0,0,1-24.2,3c-50.2,0-91-37.9-91-84.6,0-11.3,3-24.4,8.8-39.1a5.74,5.74,0,0,1,6.6-3.3,5.37,5.37,0,0,1,4.4,5.6c-.3,3.1-.5,6.2-.5,9.1,0,50.7,40.9,93.2,95.1,98.8a5.44,5.44,0,0,1,5,4.8A5.5,5.5,0,0,1,152.7,333.9Z"/></g></g></svg>