<svg xmlns="http://www.w3.org/2000/svg" xmlns:xlink="http://www.w3.org/1999/xlink" viewBox="0 0 512 327.95"><defs><style>.cls-1{fill:url(#Gradiente_sem_nome_245);}</style><linearGradient id="Gradiente_sem_nome_245" y1="163.98" x2="512" y2="163.98" gradientUnits="userSpaceOnUse"><stop offset="0" stop-color="#157fff"/><stop offset="0.16" stop-color="#1b84ff"/><stop offset="0.38" stop-color="#2b90ff"/><stop offset="0.62" stop-color="#46a6ff"/><stop offset="0.88" stop-color="#6cc3ff"/><stop offset="1" stop-color="#7fd2ff"/></linearGradient></defs><g id="Camada_2" data-name="Camada 2"><g id="Layer_1" data-name="Layer 1"><path d="M164,0A163.89,163.89,0,0,0,0,164.62C.34,254.68,74.77,328,165.91,328h76.83A450.22,450.22,0,0,0,242.74,0Z"/><path d="M276.14,0a475.67,475.67,0,0,1,29,164,475.65,475.65,0,0,1-29,164H314a15.58,15.58,0,0,0,14.64-10.19,450.52,450.52,0,0,0,0-307.57A15.58,15.58,0,0,0,314,0Z"/><path d="M384.13,34.79h90.68a15.61,15.61,0,0,0,0-31.21H384.13a15.61,15.61,0,1,0,0,31.21Z"/><path d="M390.11,115.71a15.6,15.6,0,0,0,15.6,15.61h90.68a15.61,15.61,0,1,0,0-31.22H405.71A15.6,15.6,0,0,0,390.11,115.71Z"/><path d="M496.39,196.63H405.71a15.61,15.61,0,0,0,0,31.22h90.68a15.61,15.61,0,1,0,0-31.22Z"/><path d="M474.81,293.16H384.13a15.61,15.61,0,1,0,0,31.21h90.68a15.61,15.61,0,0,0,0-31.21Z"/><path class="cls-1" d="M164,0A163.89,163.89,0,0,0,0,164.62C.34,254.68,74.77,328,165.91,328h76.83A450.22,450.22,0,0,0,242.74,0Z"/><path class="cls-1" d="M276.14,0a475.67,475.67,0,0,1,29,164,475.65,475.65,0,0,1-29,164H314a15.58,15.58,0,0,0,14.64-10.19,450.52,450.52,0,0,0,0-307.57A15.58,15.58,0,0,0,314,0Z"/><path class="cls-1" d="M384.13,34.79h90.68a15.61,15.61,0,0,0,0-31.21H384.13a15.61,15.61,0,1,0,0,31.21Z"/><path class="cls-1" d="M390.11,115.71a15.6,15.6,0,0,0,15.6,15.61h90.68a15.61,15.61,0,1,0,0-31.22H405.71A15.6,15.6,0,0,0,390.11,115.71Z"/><path class="cls-1" d="M496.39,196.63H405.71a15.61,15.61,0,0,0,0,31.22h90.68a15.61,15.61,0,1,0,0-31.22Z"/><path class="cls-1" d="M474.81,293.16H384.13a15.61,15.61,0,1,0,0,31.21h90.68a15.61,15.61,0,0,0,0-31.21Z"/></g></g></svg>