<?xml version="1.0" encoding="utf-8"?>
<!-- Generator: Adobe Illustrator 25.2.1, SVG Export Plug-In . SVG Version: 6.00 Build 0)  -->
<svg version="1.1" id="Layer_1" xmlns="http://www.w3.org/2000/svg" xmlns:xlink="http://www.w3.org/1999/xlink" x="0px" y="0px"
	 viewBox="0 0 512 512" style="enable-background:new 0 0 512 512;" xml:space="preserve">
<style type="text/css">
	.st0{fill:url(#SVGID_1_);}
	.st1{fill:url(#SVGID_2_);}
	.st2{fill:url(#SVGID_3_);}
	.st3{fill:url(#SVGID_4_);}
	.st4{fill:url(#SVGID_5_);}
	.st5{fill:url(#SVGID_6_);}
</style>
<g>
	<linearGradient id="SVGID_1_" gradientUnits="userSpaceOnUse" x1="2.6323" y1="83.4495" x2="509.6527" y2="83.4495">
		<stop  offset="0" style="stop-color:#5845FF"/>
		<stop  offset="6.182189e-02" style="stop-color:#5E45FE"/>
		<stop  offset="0.1427" style="stop-color:#6E46F9"/>
		<stop  offset="0.2343" style="stop-color:#8946F2"/>
		<stop  offset="0.3336" style="stop-color:#AF48E9"/>
		<stop  offset="0.4381" style="stop-color:#DF49DC"/>
		<stop  offset="0.5" style="stop-color:#FF4AD4"/>
		<stop  offset="0.5619" style="stop-color:#FE5AB4"/>
		<stop  offset="0.6664" style="stop-color:#FE7184"/>
		<stop  offset="0.7657" style="stop-color:#FD845E"/>
		<stop  offset="0.8573" style="stop-color:#FC9143"/>
		<stop  offset="0.9382" style="stop-color:#FC9933"/>
		<stop  offset="1" style="stop-color:#FC9C2D"/>
	</linearGradient>
	<path class="st0" d="M327.8,0H184.5C92.7,0,16.4,67.6,2.8,155.6c-0.9,5.9,3.6,11.3,9.6,11.3h487.5c6,0,10.6-5.4,9.6-11.3
		C495.9,67.6,419.6,0,327.8,0L327.8,0z M192.1,63.7c-6.6,6.6-17.4,6.6-24,0s-6.6-17.4,0-24s17.4-6.6,24,0
		C198.7,46.4,198.7,57.1,192.1,63.7z M268.5,122.4c-6.6,6.6-17.4,6.6-24,0c-6.6-6.6-6.6-17.4,0-24c6.6-6.6,17.4-6.6,24,0
		C275.2,105,275.2,115.7,268.5,122.4z M345,63.7c-6.6,6.6-17.4,6.6-24,0c-6.6-6.6-6.6-17.4,0-24s17.4-6.6,24,0S351.6,57.1,345,63.7z
		"/>
	<linearGradient id="SVGID_2_" gradientUnits="userSpaceOnUse" x1="26.7217" y1="380.5194" x2="480.7481" y2="380.5194">
		<stop  offset="0" style="stop-color:#5845FF"/>
		<stop  offset="6.182189e-02" style="stop-color:#5E45FE"/>
		<stop  offset="0.1427" style="stop-color:#6E46F9"/>
		<stop  offset="0.2343" style="stop-color:#8946F2"/>
		<stop  offset="0.3336" style="stop-color:#AF48E9"/>
		<stop  offset="0.4381" style="stop-color:#DF49DC"/>
		<stop  offset="0.5" style="stop-color:#FF4AD4"/>
		<stop  offset="0.5619" style="stop-color:#FE5AB4"/>
		<stop  offset="0.6664" style="stop-color:#FE7184"/>
		<stop  offset="0.7657" style="stop-color:#FD845E"/>
		<stop  offset="0.8573" style="stop-color:#FC9143"/>
		<stop  offset="0.9382" style="stop-color:#FC9933"/>
		<stop  offset="1" style="stop-color:#FC9C2D"/>
	</linearGradient>
	<path class="st1" d="M26.7,363.1v34.8h454v-34.8H170.9c-11.4,9.4-25.7,14.5-40.7,14.5c-15.4,0-29.5-5.4-40.6-14.5L26.7,363.1z"/>
	<linearGradient id="SVGID_3_" gradientUnits="userSpaceOnUse" x1="4.7649" y1="471.9444" x2="508.9683" y2="471.9444">
		<stop  offset="0" style="stop-color:#5845FF"/>
		<stop  offset="6.182189e-02" style="stop-color:#5E45FE"/>
		<stop  offset="0.1427" style="stop-color:#6E46F9"/>
		<stop  offset="0.2343" style="stop-color:#8946F2"/>
		<stop  offset="0.3336" style="stop-color:#AF48E9"/>
		<stop  offset="0.4381" style="stop-color:#DF49DC"/>
		<stop  offset="0.5" style="stop-color:#FF4AD4"/>
		<stop  offset="0.5619" style="stop-color:#FE5AB4"/>
		<stop  offset="0.6664" style="stop-color:#FE7184"/>
		<stop  offset="0.7657" style="stop-color:#FD845E"/>
		<stop  offset="0.8573" style="stop-color:#FC9143"/>
		<stop  offset="0.9382" style="stop-color:#FC9933"/>
		<stop  offset="1" style="stop-color:#FC9C2D"/>
	</linearGradient>
	<path class="st2" d="M97.7,512h318.4c43.2,0,79.8-28.3,92.4-67.3c2-6.3-2.6-12.8-9.3-12.8H14.5c-6.6,0-11.3,6.5-9.3,12.8
		C17.8,483.7,54.5,512,97.7,512L97.7,512z"/>
	<linearGradient id="SVGID_4_" gradientUnits="userSpaceOnUse" x1="26.7217" y1="272.2673" x2="481.606" y2="272.2673">
		<stop  offset="0" style="stop-color:#5845FF"/>
		<stop  offset="6.182189e-02" style="stop-color:#5E45FE"/>
		<stop  offset="0.1427" style="stop-color:#6E46F9"/>
		<stop  offset="0.2343" style="stop-color:#8946F2"/>
		<stop  offset="0.3336" style="stop-color:#AF48E9"/>
		<stop  offset="0.4381" style="stop-color:#DF49DC"/>
		<stop  offset="0.5" style="stop-color:#FF4AD4"/>
		<stop  offset="0.5619" style="stop-color:#FE5AB4"/>
		<stop  offset="0.6664" style="stop-color:#FE7184"/>
		<stop  offset="0.7657" style="stop-color:#FD845E"/>
		<stop  offset="0.8573" style="stop-color:#FC9143"/>
		<stop  offset="0.9382" style="stop-color:#FC9933"/>
		<stop  offset="1" style="stop-color:#FC9C2D"/>
	</linearGradient>
	<path class="st3" d="M31.3,233h29.3c21.6,0,39.3,17.6,39.4,39.2l0.2,41.3c0.1,16.6,13.6,30.1,30.2,30.1c8.1,0,15.7-3.2,21.4-8.9
		c5.7-5.7,8.8-13.4,8.8-21.5l-0.2-40.7c0-10.5,4-20.5,11.5-27.9c7.4-7.5,17.3-11.6,27.9-11.6h281c0.3,0,0.6,0,0.9,0v-32.2H26.7v32.3
		C28.2,233.1,29.7,233,31.3,233L31.3,233z"/>
	<linearGradient id="SVGID_5_" gradientUnits="userSpaceOnUse" x1="192.564" y1="298.0742" x2="511.824" y2="298.0742">
		<stop  offset="0" style="stop-color:#5845FF"/>
		<stop  offset="6.182189e-02" style="stop-color:#5E45FE"/>
		<stop  offset="0.1427" style="stop-color:#6E46F9"/>
		<stop  offset="0.2343" style="stop-color:#8946F2"/>
		<stop  offset="0.3336" style="stop-color:#AF48E9"/>
		<stop  offset="0.4381" style="stop-color:#DF49DC"/>
		<stop  offset="0.5" style="stop-color:#FF4AD4"/>
		<stop  offset="0.5619" style="stop-color:#FE5AB4"/>
		<stop  offset="0.6664" style="stop-color:#FE7184"/>
		<stop  offset="0.7657" style="stop-color:#FD845E"/>
		<stop  offset="0.8573" style="stop-color:#FC9143"/>
		<stop  offset="0.9382" style="stop-color:#FC9933"/>
		<stop  offset="1" style="stop-color:#FC9C2D"/>
	</linearGradient>
	<path class="st4" d="M480.7,329.2c17.1,0,31.1-13.9,31.1-31.1S497.9,267,480.7,267h-281c-1.9,0-3.2,1-3.8,1.6
		c-0.6,0.6-1.6,1.9-1.6,3.8l0.2,40.7c0,5.5-0.6,10.8-1.9,16H480.7z"/>
	<linearGradient id="SVGID_6_" gradientUnits="userSpaceOnUse" x1="0.176" y1="298.0742" x2="68.0156" y2="298.0742">
		<stop  offset="0" style="stop-color:#5845FF"/>
		<stop  offset="6.182189e-02" style="stop-color:#5E45FE"/>
		<stop  offset="0.1427" style="stop-color:#6E46F9"/>
		<stop  offset="0.2343" style="stop-color:#8946F2"/>
		<stop  offset="0.3336" style="stop-color:#AF48E9"/>
		<stop  offset="0.4381" style="stop-color:#DF49DC"/>
		<stop  offset="0.5" style="stop-color:#FF4AD4"/>
		<stop  offset="0.5619" style="stop-color:#FE5AB4"/>
		<stop  offset="0.6664" style="stop-color:#FE7184"/>
		<stop  offset="0.7657" style="stop-color:#FD845E"/>
		<stop  offset="0.8573" style="stop-color:#FC9143"/>
		<stop  offset="0.9382" style="stop-color:#FC9933"/>
		<stop  offset="1" style="stop-color:#FC9C2D"/>
	</linearGradient>
	<path class="st5" d="M68,329.2c-1.3-5-1.9-10.1-2-15.5l-0.2-41.3c0-3-2.4-5.4-5.4-5.4H31.3c-17.1,0-31.1,13.9-31.1,31.1
		s13.9,31.1,31.1,31.1H68z"/>
</g>
</svg>
