<svg xmlns="http://www.w3.org/2000/svg" viewBox="0 0 512 414.11"><defs><style>.cls-1{fill:#ffb031;}</style></defs><g id="Camada_2" data-name="Camada 2"><g id="Capa_1" data-name="Capa 1"><path class="cls-1" d="M256,120.1A55,55,0,0,0,241,228v171.1a15,15,0,0,0,30,0V228A55,55,0,0,0,256,120.1Z"/><path class="cls-1" d="M186.6,94.91a15,15,0,0,0-21.21,0,118.93,118.93,0,0,0,0,168.29A15,15,0,1,0,186.6,242a89,89,0,0,1,0-125.87,15,15,0,0,0,0-21.21Z"/><path class="cls-1" d="M346.61,94.91a15,15,0,0,0-21.21,21.21,89.11,89.11,0,0,1,0,125.87,15,15,0,0,0,21.21,21.21,119.13,119.13,0,0,0,0-168.29Z"/><path class="cls-1" d="M141.35,70.86a15,15,0,1,0-21.22-21.21c-71.35,71.35-71.35,187.46,0,258.81a15,15,0,1,0,21.22-21.21c-59.66-59.66-59.66-156.73,0-216.39Z"/><path class="cls-1" d="M391.87,49.65a15,15,0,0,0-21.22,21.21c59.66,59.66,59.66,156.73,0,216.39a15,15,0,1,0,21.22,21.21C463.22,237.11,463.22,121,391.87,49.65Z"/><path class="cls-1" d="M96.09,25.61A15,15,0,0,0,74.88,4.39c-99.95,100-99.73,249.6,0,349.33A15,15,0,1,0,96.09,332.5C8.61,245,8.61,113.09,96.09,25.61Z"/><path class="cls-1" d="M437.12,4.39a15,15,0,1,0-21.21,21.22c87.48,87.48,87.48,219.41,0,306.89a15,15,0,1,0,21.21,21.22c100-100,99.73-249.6,0-349.33Z"/></g></g></svg>