<svg xmlns="http://www.w3.org/2000/svg" xmlns:xlink="http://www.w3.org/1999/xlink" viewBox="0 0 512 414.11"><defs><style>.cls-1{fill:#ffb031;}.cls-2{fill:url(#Gradiente_sem_nome_336);}</style><linearGradient id="Gradiente_sem_nome_336" y1="207.06" x2="512" y2="207.06" gradientUnits="userSpaceOnUse"><stop offset="0" stop-color="#5845ff"/><stop offset="0.06" stop-color="#5e45fe"/><stop offset="0.14" stop-color="#6e46f9"/><stop offset="0.23" stop-color="#8946f2"/><stop offset="0.33" stop-color="#af48e9"/><stop offset="0.44" stop-color="#df49dc"/><stop offset="0.5" stop-color="#ff4ad4"/><stop offset="0.56" stop-color="#fe5ab4"/><stop offset="0.67" stop-color="#fe7184"/><stop offset="0.77" stop-color="#fd845e"/><stop offset="0.86" stop-color="#fc9143"/><stop offset="0.94" stop-color="#fc9933"/><stop offset="1" stop-color="#fc9c2d"/></linearGradient></defs><g id="Camada_2" data-name="Camada 2"><g id="Capa_1" data-name="Capa 1"><path class="cls-1" d="M256,120.1A55,55,0,0,0,241,228v171.1a15,15,0,0,0,30,0V228A55,55,0,0,0,256,120.1Z"/><path class="cls-1" d="M186.6,94.91a15,15,0,0,0-21.21,0,118.93,118.93,0,0,0,0,168.29A15,15,0,1,0,186.6,242a89,89,0,0,1,0-125.87,15,15,0,0,0,0-21.21Z"/><path class="cls-1" d="M346.61,94.91a15,15,0,0,0-21.21,21.21,89.11,89.11,0,0,1,0,125.87,15,15,0,0,0,21.21,21.21,119.13,119.13,0,0,0,0-168.29Z"/><path class="cls-1" d="M141.35,70.86a15,15,0,1,0-21.22-21.21c-71.35,71.35-71.35,187.46,0,258.81a15,15,0,1,0,21.22-21.21c-59.66-59.66-59.66-156.73,0-216.39Z"/><path class="cls-1" d="M391.87,49.65a15,15,0,0,0-21.22,21.21c59.66,59.66,59.66,156.73,0,216.39a15,15,0,1,0,21.22,21.21C463.22,237.11,463.22,121,391.87,49.65Z"/><path class="cls-1" d="M96.09,25.61A15,15,0,0,0,74.88,4.39c-99.95,100-99.73,249.6,0,349.33A15,15,0,1,0,96.09,332.5C8.61,245,8.61,113.09,96.09,25.61Z"/><path class="cls-1" d="M437.12,4.39a15,15,0,1,0-21.21,21.22c87.48,87.48,87.48,219.41,0,306.89a15,15,0,1,0,21.21,21.22c100-100,99.73-249.6,0-349.33Z"/><path class="cls-2" d="M256,120.1A55,55,0,0,0,241,228v171.1a15,15,0,0,0,30,0V228A55,55,0,0,0,256,120.1Z"/><path class="cls-2" d="M186.6,94.91a15,15,0,0,0-21.21,0,118.93,118.93,0,0,0,0,168.29A15,15,0,1,0,186.6,242a89,89,0,0,1,0-125.87,15,15,0,0,0,0-21.21Z"/><path class="cls-2" d="M346.61,94.91a15,15,0,0,0-21.21,21.21,89.11,89.11,0,0,1,0,125.87,15,15,0,0,0,21.21,21.21,119.13,119.13,0,0,0,0-168.29Z"/><path class="cls-2" d="M141.35,70.86a15,15,0,1,0-21.22-21.21c-71.35,71.35-71.35,187.46,0,258.81a15,15,0,1,0,21.22-21.21c-59.66-59.66-59.66-156.73,0-216.39Z"/><path class="cls-2" d="M391.87,49.65a15,15,0,0,0-21.22,21.21c59.66,59.66,59.66,156.73,0,216.39a15,15,0,1,0,21.22,21.21C463.22,237.11,463.22,121,391.87,49.65Z"/><path class="cls-2" d="M96.09,25.61A15,15,0,0,0,74.88,4.39c-99.95,100-99.73,249.6,0,349.33A15,15,0,1,0,96.09,332.5C8.61,245,8.61,113.09,96.09,25.61Z"/><path class="cls-2" d="M437.12,4.39a15,15,0,1,0-21.21,21.22c87.48,87.48,87.48,219.41,0,306.89a15,15,0,1,0,21.21,21.22c100-100,99.73-249.6,0-349.33Z"/></g></g></svg>