<svg xmlns="http://www.w3.org/2000/svg" viewBox="0 0 512 512"><defs><style>.cls-1{fill:#999;}</style></defs><g id="Camada_2" data-name="Camada 2"><g id="Camada_1-2" data-name="Camada 1"><path class="cls-1" d="M69.89,378.65A88.75,88.75,0,0,1,61,368.24l-61,61L82.78,512l60.79-60.8a89,89,0,0,1-8.89-7.76Z"/><path class="cls-1" d="M159.31,208.11,91.41,276a57.42,57.42,0,0,0,0,81.12l64.79,64.79a57.35,57.35,0,0,0,81.11,0L305.22,354ZM195.9,373.3l-56.36-56.37,21.51-21.52,56.38,56.37Z"/><path class="cls-1" d="M451.62,126.49a86.86,86.86,0,0,1,7.77,8.9L512,82.78,429.22,0,376.43,52.79a89.3,89.3,0,0,1,10.41,8.91Z"/><path class="cls-1" d="M197.93,212.75l18.48-18.47L319,296.92l-18.47,18.47Z"/><path class="cls-1" d="M365.32,83.22a57.36,57.36,0,0,0-81.12,0l-67.91,67.9L362.2,297l67.91-67.91a57.45,57.45,0,0,0,0-81.11Z"/></g></g></svg>