<svg xmlns="http://www.w3.org/2000/svg" xmlns:xlink="http://www.w3.org/1999/xlink" viewBox="0 0 512 512"><defs><style>.cls-1{fill:url(#Gradiente_sem_nome_95);}.cls-2{fill:url(#Gradiente_sem_nome_418);}</style><linearGradient id="Gradiente_sem_nome_95" x1="216.29" y1="181.72" x2="446.87" y2="181.72" gradientUnits="userSpaceOnUse"><stop offset="0" stop-color="#3fe900"/><stop offset="0.13" stop-color="#42ea06"/><stop offset="0.3" stop-color="#4bec16"/><stop offset="0.49" stop-color="#5af031"/><stop offset="0.7" stop-color="#6ff557"/><stop offset="0.92" stop-color="#89fc87"/><stop offset="1" stop-color="#94ff9b"/></linearGradient><linearGradient id="Gradiente_sem_nome_418" y1="256" x2="512" y2="256" gradientUnits="userSpaceOnUse"><stop offset="0" stop-color="#ff1c00"/><stop offset="0.21" stop-color="#ff1d06"/><stop offset="0.48" stop-color="#ff2016"/><stop offset="0.79" stop-color="#ff2631"/><stop offset="1" stop-color="#ff2a48"/></linearGradient></defs><g id="Camada_2" data-name="Camada 2"><g id="Camada_1-2" data-name="Camada 1"><path d="M69.89,378.65A88.75,88.75,0,0,1,61,368.24l-61,61L82.78,512l60.79-60.8a89,89,0,0,1-8.89-7.76Z"/><path d="M159.31,208.11,91.41,276a57.42,57.42,0,0,0,0,81.12l64.79,64.79a57.35,57.35,0,0,0,81.11,0L305.22,354ZM195.9,373.3l-56.36-56.37,21.51-21.52,56.38,56.37Z"/><path d="M451.62,126.49a86.86,86.86,0,0,1,7.77,8.9L512,82.78,429.22,0,376.43,52.79a89.3,89.3,0,0,1,10.41,8.91Z"/><path d="M197.93,212.75l18.48-18.47L319,296.92l-18.47,18.47Z"/><path class="cls-1" d="M365.32,83.22a57.36,57.36,0,0,0-81.12,0l-67.91,67.9L362.2,297l67.91-67.91a57.45,57.45,0,0,0,0-81.11Z"/><path class="cls-2" d="M69.89,378.65A88.75,88.75,0,0,1,61,368.24l-61,61L82.78,512l60.79-60.8a89,89,0,0,1-8.89-7.76Z"/><path class="cls-2" d="M159.31,208.11,91.41,276a57.42,57.42,0,0,0,0,81.12l64.79,64.79a57.35,57.35,0,0,0,81.11,0L305.22,354ZM195.9,373.3l-56.36-56.37,21.51-21.52,56.38,56.37Z"/><path class="cls-2" d="M451.62,126.49a86.86,86.86,0,0,1,7.77,8.9L512,82.78,429.22,0,376.43,52.79a89.3,89.3,0,0,1,10.41,8.91Z"/><path class="cls-2" d="M197.93,212.75l18.48-18.47L319,296.92l-18.47,18.47Z"/><path class="cls-2" d="M365.32,83.22a57.36,57.36,0,0,0-81.12,0l-67.91,67.9L362.2,297l67.91-67.91a57.45,57.45,0,0,0,0-81.11Z"/></g></g></svg>