<?xml version="1.0" encoding="utf-8"?>
<!-- Generator: Adobe Illustrator 25.2.1, SVG Export Plug-In . SVG Version: 6.00 Build 0)  -->
<svg version="1.1" id="Capa_1" xmlns="http://www.w3.org/2000/svg" xmlns:xlink="http://www.w3.org/1999/xlink" x="0px" y="0px"
	 viewBox="0 0 512 512" style="enable-background:new 0 0 512 512;" xml:space="preserve">
<style type="text/css">
	.st0{fill:url(#SVGID_1_);}
	.st1{fill:url(#SVGID_2_);}
	.st2{fill:url(#SVGID_3_);}
	.st3{fill:url(#SVGID_4_);}
	.st4{fill:url(#SVGID_5_);}
	.st5{fill:url(#SVGID_6_);}
	.st6{fill:url(#SVGID_7_);}
	.st7{fill:url(#SVGID_8_);}
	.st8{fill:url(#SVGID_9_);}
	.st9{fill:url(#SVGID_10_);}
	.st10{fill:url(#SVGID_11_);}
	.st11{fill:url(#SVGID_12_);}
	.st12{fill:url(#SVGID_13_);}
	.st13{fill:url(#SVGID_14_);}
</style>
<g>
	<g>
		<g>
			<linearGradient id="SVGID_1_" gradientUnits="userSpaceOnUse" x1="245.3047" y1="256" x2="500.3212" y2="256">
				<stop  offset="0" style="stop-color:#5845FF"/>
				<stop  offset="6.182189e-02" style="stop-color:#5E45FE"/>
				<stop  offset="0.1427" style="stop-color:#6E46F9"/>
				<stop  offset="0.2343" style="stop-color:#8946F2"/>
				<stop  offset="0.3336" style="stop-color:#AF48E9"/>
				<stop  offset="0.4381" style="stop-color:#DF49DC"/>
				<stop  offset="0.5" style="stop-color:#FF4AD4"/>
				<stop  offset="0.5619" style="stop-color:#FE5AB4"/>
				<stop  offset="0.6664" style="stop-color:#FE7184"/>
				<stop  offset="0.7657" style="stop-color:#FD845E"/>
				<stop  offset="0.8573" style="stop-color:#FC9143"/>
				<stop  offset="0.9382" style="stop-color:#FC9933"/>
				<stop  offset="1" style="stop-color:#FC9C2D"/>
			</linearGradient>
			<path class="st0" d="M304,0c26.8,0,48.4,21.7,48.4,48.5c0,1.4-0.1,2.8-0.2,4.1c4.8-1,9.8-1.6,14.9-1.6
				c38.4,0,69.5,31.1,69.5,69.6c0,8.6-1.6,16.8-4.4,24.4c35.5,3.2,63.3,33,63.3,69.3c0,23.1-11.2,43.5-28.5,56.1
				c17.3,5.7,30.6,21,32.9,40.2c3.1,25.6-14.3,49-39.3,53.5c7.8,11.6,12.3,25.5,12.3,40.5c0,40.1-32.4,72.5-72.5,72.5
				c-13,0-25.2-3.5-35.8-9.5c-5,25.2-27.3,44.3-54,44.3c-30.4,0-55.1-24.7-55.1-55.1l-10.3-207.7l10.3-200.7
				C255.6,21.7,277.3,0,304,0z"/>
		</g>
	</g>
	<g>
		<g>
			<linearGradient id="SVGID_2_" gradientUnits="userSpaceOnUse" x1="11.6778" y1="256" x2="256.3935" y2="256">
				<stop  offset="0" style="stop-color:#5845FF"/>
				<stop  offset="6.182189e-02" style="stop-color:#5E45FE"/>
				<stop  offset="0.1427" style="stop-color:#6E46F9"/>
				<stop  offset="0.2343" style="stop-color:#8946F2"/>
				<stop  offset="0.3336" style="stop-color:#AF48E9"/>
				<stop  offset="0.4381" style="stop-color:#DF49DC"/>
				<stop  offset="0.5" style="stop-color:#FF4AD4"/>
				<stop  offset="0.5619" style="stop-color:#FE5AB4"/>
				<stop  offset="0.6664" style="stop-color:#FE7184"/>
				<stop  offset="0.7657" style="stop-color:#FD845E"/>
				<stop  offset="0.8573" style="stop-color:#FC9143"/>
				<stop  offset="0.9382" style="stop-color:#FC9933"/>
				<stop  offset="1" style="stop-color:#FC9C2D"/>
			</linearGradient>
			<path class="st1" d="M208,0c-26.8,0-48.4,21.7-48.4,48.5c0,1.4,0.1,2.8,0.2,4.1c-4.8-1-9.8-1.6-14.9-1.6
				c-38.4,0-69.5,31.1-69.5,69.6c0,8.6,1.6,16.8,4.4,24.4c-35.5,3.2-63.3,33-63.3,69.3c0,23.1,11.2,43.5,28.5,56.1
				c-17.3,5.7-30.6,21-32.9,40.2c-3.1,25.6,14.3,49,39.3,53.5c-7.8,11.6-12.3,25.5-12.3,40.5c0,40.1,32.4,72.5,72.5,72.5
				c13,0,25.2-3.5,35.8-9.5c5,25.2,27.3,44.3,54,44.3c30.4,0,55.1-24.7,55.1-55.1V48.5C256.4,21.7,234.7,0,208,0L208,0z"/>
		</g>
	</g>
	<g>
		<g>
			<linearGradient id="SVGID_3_" gradientUnits="userSpaceOnUse" x1="185.8684" y1="256.0005" x2="256.3935" y2="256.0005">
				<stop  offset="0" style="stop-color:#5845FF"/>
				<stop  offset="6.182189e-02" style="stop-color:#5E45FE"/>
				<stop  offset="0.1427" style="stop-color:#6E46F9"/>
				<stop  offset="0.2343" style="stop-color:#8946F2"/>
				<stop  offset="0.3336" style="stop-color:#AF48E9"/>
				<stop  offset="0.4381" style="stop-color:#DF49DC"/>
				<stop  offset="0.5" style="stop-color:#FF4AD4"/>
				<stop  offset="0.5619" style="stop-color:#FE5AB4"/>
				<stop  offset="0.6664" style="stop-color:#FE7184"/>
				<stop  offset="0.7657" style="stop-color:#FD845E"/>
				<stop  offset="0.8573" style="stop-color:#FC9143"/>
				<stop  offset="0.9382" style="stop-color:#FC9933"/>
				<stop  offset="1" style="stop-color:#FC9C2D"/>
			</linearGradient>
			<path class="st2" d="M208,0c-5.4,0-10.6,0.9-15.5,2.5c19.2,6.5,33,24.6,33,46v408.4c0,25.1-16.7,46.2-39.6,52.9
				c4.9,1.4,10.1,2.2,15.5,2.2c30.4,0,55.1-24.7,55.1-55.1V48.5C256.4,21.7,234.7,0,208,0L208,0z"/>
		</g>
	</g>
	<g>
		<g>
			<linearGradient id="SVGID_4_" gradientUnits="userSpaceOnUse" x1="436.6577" y1="305.4592" x2="500.321" y2="305.4592">
				<stop  offset="0" style="stop-color:#5845FF"/>
				<stop  offset="6.182189e-02" style="stop-color:#5E45FE"/>
				<stop  offset="0.1427" style="stop-color:#6E46F9"/>
				<stop  offset="0.2343" style="stop-color:#8946F2"/>
				<stop  offset="0.3336" style="stop-color:#AF48E9"/>
				<stop  offset="0.4381" style="stop-color:#DF49DC"/>
				<stop  offset="0.5" style="stop-color:#FF4AD4"/>
				<stop  offset="0.5619" style="stop-color:#FE5AB4"/>
				<stop  offset="0.6664" style="stop-color:#FE7184"/>
				<stop  offset="0.7657" style="stop-color:#FD845E"/>
				<stop  offset="0.8573" style="stop-color:#FC9143"/>
				<stop  offset="0.9382" style="stop-color:#FC9933"/>
				<stop  offset="1" style="stop-color:#FC9C2D"/>
			</linearGradient>
			<path class="st3" d="M492.5,342.9c6-9.2,8.9-20.5,7.5-32.3c-3.2-26.6-27.4-45.5-53.9-42.3c-3.3,0.4-6.4,1.1-9.4,2.1"/>
		</g>
	</g>
	<g>
		<g>
			<linearGradient id="SVGID_5_" gradientUnits="userSpaceOnUse" x1="328.3125" y1="116.3415" x2="436.6577" y2="116.3415">
				<stop  offset="0" style="stop-color:#5845FF"/>
				<stop  offset="6.182189e-02" style="stop-color:#5E45FE"/>
				<stop  offset="0.1427" style="stop-color:#6E46F9"/>
				<stop  offset="0.2343" style="stop-color:#8946F2"/>
				<stop  offset="0.3336" style="stop-color:#AF48E9"/>
				<stop  offset="0.4381" style="stop-color:#DF49DC"/>
				<stop  offset="0.5" style="stop-color:#FF4AD4"/>
				<stop  offset="0.5619" style="stop-color:#FE5AB4"/>
				<stop  offset="0.6664" style="stop-color:#FE7184"/>
				<stop  offset="0.7657" style="stop-color:#FD845E"/>
				<stop  offset="0.8573" style="stop-color:#FC9143"/>
				<stop  offset="0.9382" style="stop-color:#FC9933"/>
				<stop  offset="1" style="stop-color:#FC9C2D"/>
			</linearGradient>
			<path class="st4" d="M400.5,181.7c21.6-11.8,36.2-34.7,36.2-61.1c0-38.4-31.1-69.6-69.5-69.6c-14.4,0-27.8,4.4-38.9,11.9"/>
		</g>
	</g>
	<g>
		<g>
			<linearGradient id="SVGID_6_" gradientUnits="userSpaceOnUse" x1="340.3605" y1="413.0017" x2="472.9263" y2="413.0017">
				<stop  offset="0" style="stop-color:#5845FF"/>
				<stop  offset="6.182189e-02" style="stop-color:#5E45FE"/>
				<stop  offset="0.1427" style="stop-color:#6E46F9"/>
				<stop  offset="0.2343" style="stop-color:#8946F2"/>
				<stop  offset="0.3336" style="stop-color:#AF48E9"/>
				<stop  offset="0.4381" style="stop-color:#DF49DC"/>
				<stop  offset="0.5" style="stop-color:#FF4AD4"/>
				<stop  offset="0.5619" style="stop-color:#FE5AB4"/>
				<stop  offset="0.6664" style="stop-color:#FE7184"/>
				<stop  offset="0.7657" style="stop-color:#FD845E"/>
				<stop  offset="0.8573" style="stop-color:#FC9143"/>
				<stop  offset="0.9382" style="stop-color:#FC9933"/>
				<stop  offset="1" style="stop-color:#FC9C2D"/>
			</linearGradient>
			<path class="st5" d="M340.4,445.2c13,19.3,35.1,32,60.1,32c40,0,72.5-32.5,72.5-72.5c0-22.5-10.2-42.5-26.2-55.8"/>
		</g>
	</g>
	<g>
		<g>
			<linearGradient id="SVGID_7_" gradientUnits="userSpaceOnUse" x1="285.5446" y1="238.5987" x2="500.321" y2="238.5987">
				<stop  offset="0" style="stop-color:#5845FF"/>
				<stop  offset="6.182189e-02" style="stop-color:#5E45FE"/>
				<stop  offset="0.1427" style="stop-color:#6E46F9"/>
				<stop  offset="0.2343" style="stop-color:#8946F2"/>
				<stop  offset="0.3336" style="stop-color:#AF48E9"/>
				<stop  offset="0.4381" style="stop-color:#DF49DC"/>
				<stop  offset="0.5" style="stop-color:#FF4AD4"/>
				<stop  offset="0.5619" style="stop-color:#FE5AB4"/>
				<stop  offset="0.6664" style="stop-color:#FE7184"/>
				<stop  offset="0.7657" style="stop-color:#FD845E"/>
				<stop  offset="0.8573" style="stop-color:#FC9143"/>
				<stop  offset="0.9382" style="stop-color:#FC9933"/>
				<stop  offset="1" style="stop-color:#FC9C2D"/>
			</linearGradient>
			<path class="st6" d="M500,310.7c-2.3-19.3-15.7-34.5-32.9-40.2c17.2-12.7,28.5-33.1,28.5-56.1c0-36.3-27.8-66.1-63.3-69.3
				c2.9-7.6,4.4-15.8,4.4-24.4c0-38.4-31.1-69.6-69.5-69.6c-5.1,0-10.1,0.6-14.9,1.6c0.1-1.4,0.2-2.7,0.2-4.1
				C352.5,21.7,330.8,0,304,0c-6.6,0-12.8,1.3-18.5,3.7c20.7,5.5,36,24.4,36,46.9v0c0,2.1,1.8,3.7,3.9,3.3c3.5-0.6,7.1-0.8,10.8-0.8
				c38.4,0,69.5,31.1,69.5,69.6c0,2.3-0.1,4.6-0.3,6.9c-0.9,9.3,4.4,18.2,13.2,21.3c26.8,9.6,46,35.3,46,65.5
				c0,23.1-11.2,43.5-28.5,56.1c17.3,5.7,30.6,21,32.9,40.2c2.1,17.4-5.2,33.7-18,43.8c-9.9,7.8-14.2,20.6-11.2,32.8
				c1.4,5.6,2.1,11.4,2.1,17.4c0,33.1-22.1,60.9-52.3,69.7c3.5,0.5,7.1,0.8,10.7,0.8c40,0,72.5-32.5,72.5-72.5
				c0-15-4.5-28.9-12.3-40.5C485.6,359.6,503.1,336.3,500,310.7z"/>
		</g>
	</g>
	<g>
		<g>
			<linearGradient id="SVGID_8_" gradientUnits="userSpaceOnUse" x1="133.3947" y1="142.5632" x2="249.0514" y2="142.5632">
				<stop  offset="0" style="stop-color:#5845FF"/>
				<stop  offset="6.182189e-02" style="stop-color:#5E45FE"/>
				<stop  offset="0.1427" style="stop-color:#6E46F9"/>
				<stop  offset="0.2343" style="stop-color:#8946F2"/>
				<stop  offset="0.3336" style="stop-color:#AF48E9"/>
				<stop  offset="0.4381" style="stop-color:#DF49DC"/>
				<stop  offset="0.5" style="stop-color:#FF4AD4"/>
				<stop  offset="0.5619" style="stop-color:#FE5AB4"/>
				<stop  offset="0.6664" style="stop-color:#FE7184"/>
				<stop  offset="0.7657" style="stop-color:#FD845E"/>
				<stop  offset="0.8573" style="stop-color:#FC9143"/>
				<stop  offset="0.9382" style="stop-color:#FC9933"/>
				<stop  offset="1" style="stop-color:#FC9C2D"/>
			</linearGradient>
			<path class="st7" d="M209.3,178.4c-20,0-39.6-7.8-54.5-22.7c-10.9-10.9-18.3-24.7-21.2-39.9c-0.8-4.2,1.9-8.2,6.1-9.1
				c4.2-0.8,8.2,1.9,9.1,6.1c2.3,12.1,8.2,23.1,16.9,31.9c19.1,19.1,48.1,23.6,72.1,11.2c3.8-2,8.5-0.5,10.4,3.3
				c2,3.8,0.5,8.5-3.3,10.4C233.6,175.6,221.4,178.4,209.3,178.4L209.3,178.4z"/>
		</g>
	</g>
	<g>
		<g>
			
				<linearGradient id="SVGID_9_" gradientUnits="userSpaceOnUse" x1="1.525879e-05" y1="1.525879e-05" x2="1.525879e-05" y2="1.525879e-05">
				<stop  offset="0" style="stop-color:#5845FF"/>
				<stop  offset="6.182189e-02" style="stop-color:#5E45FE"/>
				<stop  offset="0.1427" style="stop-color:#6E46F9"/>
				<stop  offset="0.2343" style="stop-color:#8946F2"/>
				<stop  offset="0.3336" style="stop-color:#AF48E9"/>
				<stop  offset="0.4381" style="stop-color:#DF49DC"/>
				<stop  offset="0.5" style="stop-color:#FF4AD4"/>
				<stop  offset="0.5619" style="stop-color:#FE5AB4"/>
				<stop  offset="0.6664" style="stop-color:#FE7184"/>
				<stop  offset="0.7657" style="stop-color:#FD845E"/>
				<stop  offset="0.8573" style="stop-color:#FC9143"/>
				<stop  offset="0.9382" style="stop-color:#FC9933"/>
				<stop  offset="1" style="stop-color:#FC9C2D"/>
			</linearGradient>
			<path class="st8" d="M0,0"/>
		</g>
	</g>
	<g>
		<linearGradient id="SVGID_10_" gradientUnits="userSpaceOnUse" x1="320.4545" y1="364.5932" x2="402.3741" y2="364.5932">
			<stop  offset="0" style="stop-color:#5845FF"/>
			<stop  offset="6.182189e-02" style="stop-color:#5E45FE"/>
			<stop  offset="0.1427" style="stop-color:#6E46F9"/>
			<stop  offset="0.2343" style="stop-color:#8946F2"/>
			<stop  offset="0.3336" style="stop-color:#AF48E9"/>
			<stop  offset="0.4381" style="stop-color:#DF49DC"/>
			<stop  offset="0.5" style="stop-color:#FF4AD4"/>
			<stop  offset="0.5619" style="stop-color:#FE5AB4"/>
			<stop  offset="0.6664" style="stop-color:#FE7184"/>
			<stop  offset="0.7657" style="stop-color:#FD845E"/>
			<stop  offset="0.8573" style="stop-color:#FC9143"/>
			<stop  offset="0.9382" style="stop-color:#FC9933"/>
			<stop  offset="1" style="stop-color:#FC9C2D"/>
		</linearGradient>
		<path class="st9" d="M402.2,331.4c-1-4.2-5.1-6.7-9.3-5.8c-12.5,2.9-23.7,10.1-31.6,20.2c-11-4.7-23.1-5.8-34.9-3.1
			c-4.2,1-6.7,5.1-5.8,9.3c1,4.2,5.1,6.7,9.3,5.8c10.6-2.5,21.5-0.7,30.8,5.1c9.2,5.7,15.7,14.7,18.2,25.3c0.6,2.6,1,5.3,1.1,8
			c0.1,4.2,3.6,7.5,7.7,7.5c0.1,0,0.2,0,0.2,0c4.3-0.1,7.6-3.7,7.5-8c-0.1-3.7-0.6-7.4-1.4-11c-2.9-12.3-9.6-23-19.2-30.8
			c5.6-6.6,13.2-11.2,21.7-13.2C400.6,339.7,403.1,335.6,402.2,331.4L402.2,331.4z"/>
		<linearGradient id="SVGID_11_" gradientUnits="userSpaceOnUse" x1="84.239" y1="183.935" x2="136.9294" y2="183.935">
			<stop  offset="0" style="stop-color:#5845FF"/>
			<stop  offset="6.182189e-02" style="stop-color:#5E45FE"/>
			<stop  offset="0.1427" style="stop-color:#6E46F9"/>
			<stop  offset="0.2343" style="stop-color:#8946F2"/>
			<stop  offset="0.3336" style="stop-color:#AF48E9"/>
			<stop  offset="0.4381" style="stop-color:#DF49DC"/>
			<stop  offset="0.5" style="stop-color:#FF4AD4"/>
			<stop  offset="0.5619" style="stop-color:#FE5AB4"/>
			<stop  offset="0.6664" style="stop-color:#FE7184"/>
			<stop  offset="0.7657" style="stop-color:#FD845E"/>
			<stop  offset="0.8573" style="stop-color:#FC9143"/>
			<stop  offset="0.9382" style="stop-color:#FC9933"/>
			<stop  offset="1" style="stop-color:#FC9C2D"/>
		</linearGradient>
		<path class="st10" d="M130.8,205.1c2.7-0.6,5-2.5,5.8-5.3c1.2-4.1-1.1-8.4-5.1-9.6c-13.4-4.1-25.2-12.7-33.1-24.2
			c-2.4-3.5-7.2-4.4-10.7-2c-3.5,2.4-4.4,7.2-2,10.7c9.9,14.4,24.6,25.2,41.4,30.3C128.2,205.3,129.5,205.4,130.8,205.1L130.8,205.1
			z"/>
		<linearGradient id="SVGID_12_" gradientUnits="userSpaceOnUse" x1="105.5953" y1="347.4121" x2="196.9614" y2="347.4121">
			<stop  offset="0" style="stop-color:#5845FF"/>
			<stop  offset="6.182189e-02" style="stop-color:#5E45FE"/>
			<stop  offset="0.1427" style="stop-color:#6E46F9"/>
			<stop  offset="0.2343" style="stop-color:#8946F2"/>
			<stop  offset="0.3336" style="stop-color:#AF48E9"/>
			<stop  offset="0.4381" style="stop-color:#DF49DC"/>
			<stop  offset="0.5" style="stop-color:#FF4AD4"/>
			<stop  offset="0.5619" style="stop-color:#FE5AB4"/>
			<stop  offset="0.6664" style="stop-color:#FE7184"/>
			<stop  offset="0.7657" style="stop-color:#FD845E"/>
			<stop  offset="0.8573" style="stop-color:#FC9143"/>
			<stop  offset="0.9382" style="stop-color:#FC9933"/>
			<stop  offset="1" style="stop-color:#FC9C2D"/>
		</linearGradient>
		<path class="st11" d="M185.5,285.5c-13.4,7.5-24.2,18.9-31.2,32.7c-4.4,8.8-7,18.1-7.9,27.5c-17.5,7.3-31.9,21-40.1,38.1
			c-1.8,3.9-0.2,8.5,3.7,10.3c1.1,0.5,2.2,0.7,3.3,0.7c2.9,0,5.7-1.6,7-4.4c5.6-11.8,15-21.5,26.4-27.8c2.2,16.9,9.9,33,22.8,45.5
			c1.5,1.5,3.4,2.2,5.4,2.2c2,0,4-0.8,5.5-2.3c3-3.1,2.9-7.9-0.1-10.9c-12.6-12.3-19.1-28.9-18.7-45.6c0-0.2,0-0.3,0-0.5
			c0.3-8.8,2.4-17.6,6.6-25.8C173.7,314,182.3,305,193,299c3.7-2.1,5-6.8,3-10.5C193.9,284.7,189.2,283.4,185.5,285.5L185.5,285.5z"
			/>
		<linearGradient id="SVGID_13_" gradientUnits="userSpaceOnUse" x1="293.3076" y1="181.666" x2="370.3411" y2="181.666">
			<stop  offset="0" style="stop-color:#5845FF"/>
			<stop  offset="6.182189e-02" style="stop-color:#5E45FE"/>
			<stop  offset="0.1427" style="stop-color:#6E46F9"/>
			<stop  offset="0.2343" style="stop-color:#8946F2"/>
			<stop  offset="0.3336" style="stop-color:#AF48E9"/>
			<stop  offset="0.4381" style="stop-color:#DF49DC"/>
			<stop  offset="0.5" style="stop-color:#FF4AD4"/>
			<stop  offset="0.5619" style="stop-color:#FE5AB4"/>
			<stop  offset="0.6664" style="stop-color:#FE7184"/>
			<stop  offset="0.7657" style="stop-color:#FD845E"/>
			<stop  offset="0.8573" style="stop-color:#FC9143"/>
			<stop  offset="0.9382" style="stop-color:#FC9933"/>
			<stop  offset="1" style="stop-color:#FC9C2D"/>
		</linearGradient>
		<path class="st12" d="M337.2,176.2c0.1,0.1,0.1,0.3,0.2,0.4c3.9,7.8,6.3,16.6,6.6,25.8c0.4,12.4-2.9,24.4-9.4,34.9
			c-2.3,3.6-1.2,8.4,2.4,10.7c1.3,0.8,2.7,1.2,4.1,1.2c2.6,0,5.1-1.3,6.5-3.6c8.2-13.1,12.3-28.1,11.8-43.6
			c-0.3-9.8-2.5-19.3-6.2-27.9c11.9-14.8,18-33.7,17-52.6c-0.2-4.3-3.9-7.5-8.1-7.3c-4.3,0.2-7.5,3.9-7.3,8.1
			c0.7,13.1-2.9,26.1-9.9,37c-9.9-13.8-24.4-24.2-41.7-29.1c-4.1-1.2-8.4,1.2-9.5,5.3c-1.2,4.1,1.2,8.4,5.3,9.5
			C315.9,149.8,329.5,161.3,337.2,176.2L337.2,176.2z"/>
		<linearGradient id="SVGID_14_" gradientUnits="userSpaceOnUse" x1="296.9354" y1="439.7093" x2="344.2358" y2="439.7093">
			<stop  offset="0" style="stop-color:#5845FF"/>
			<stop  offset="6.182189e-02" style="stop-color:#5E45FE"/>
			<stop  offset="0.1427" style="stop-color:#6E46F9"/>
			<stop  offset="0.2343" style="stop-color:#8946F2"/>
			<stop  offset="0.3336" style="stop-color:#AF48E9"/>
			<stop  offset="0.4381" style="stop-color:#DF49DC"/>
			<stop  offset="0.5" style="stop-color:#FF4AD4"/>
			<stop  offset="0.5619" style="stop-color:#FE5AB4"/>
			<stop  offset="0.6664" style="stop-color:#FE7184"/>
			<stop  offset="0.7657" style="stop-color:#FD845E"/>
			<stop  offset="0.8573" style="stop-color:#FC9143"/>
			<stop  offset="0.9382" style="stop-color:#FC9933"/>
			<stop  offset="1" style="stop-color:#FC9C2D"/>
		</linearGradient>
		<path class="st13" d="M339.5,445.7c-11.6-4.9-21.4-13-28.5-23.5c-2.4-3.5-7.2-4.5-10.7-2.1c-3.5,2.4-4.5,7.2-2.1,10.7
			c8.7,12.9,20.9,23,35.2,29.1c1,0.4,2,0.6,3,0.6c3,0,5.9-1.8,7.1-4.7C345.3,451.9,343.5,447.4,339.5,445.7L339.5,445.7z"/>
	</g>
</g>
</svg>
