<?xml version="1.0" encoding="utf-8"?>
<!-- Generator: Adobe Illustrator 25.2.1, SVG Export Plug-In . SVG Version: 6.00 Build 0)  -->
<svg version="1.1" id="Capa_1" xmlns="http://www.w3.org/2000/svg" xmlns:xlink="http://www.w3.org/1999/xlink" x="0px" y="0px"
	 viewBox="0 0 512 512" style="enable-background:new 0 0 512 512;" xml:space="preserve">
<style type="text/css">
	.st0{fill:url(#SVGID_1_);}
	.st1{fill:url(#SVGID_2_);}
</style>
<g>
	<g>
		<linearGradient id="SVGID_1_" gradientUnits="userSpaceOnUse" x1="236.169" y1="227.8425" x2="355.1555" y2="227.8425">
			<stop  offset="0" style="stop-color:#5845FF"/>
			<stop  offset="6.182189e-02" style="stop-color:#5E45FE"/>
			<stop  offset="0.1427" style="stop-color:#6E46F9"/>
			<stop  offset="0.2343" style="stop-color:#8946F2"/>
			<stop  offset="0.3336" style="stop-color:#AF48E9"/>
			<stop  offset="0.4381" style="stop-color:#DF49DC"/>
			<stop  offset="0.5" style="stop-color:#FF4AD4"/>
			<stop  offset="0.5619" style="stop-color:#FE5AB4"/>
			<stop  offset="0.6664" style="stop-color:#FE7184"/>
			<stop  offset="0.7657" style="stop-color:#FD845E"/>
			<stop  offset="0.8573" style="stop-color:#FC9143"/>
			<stop  offset="0.9382" style="stop-color:#FC9933"/>
			<stop  offset="1" style="stop-color:#FC9C2D"/>
		</linearGradient>
		<path class="st0" d="M347.2,301.2l-71.4-53.5V138.6c0-11-8.9-19.8-19.8-19.8c-11,0-19.8,8.9-19.8,19.8v119
			c0,6.2,2.9,12.1,7.9,15.9l79.3,59.5c3.6,2.7,7.7,4,11.9,4c6,0,12-2.7,15.9-8C357.8,320.2,356,307.8,347.2,301.2z"/>
	</g>
</g>
<g>
	<g>
		<linearGradient id="SVGID_2_" gradientUnits="userSpaceOnUse" x1="0" y1="256" x2="512" y2="256">
			<stop  offset="0" style="stop-color:#5845FF"/>
			<stop  offset="6.182189e-02" style="stop-color:#5E45FE"/>
			<stop  offset="0.1427" style="stop-color:#6E46F9"/>
			<stop  offset="0.2343" style="stop-color:#8946F2"/>
			<stop  offset="0.3336" style="stop-color:#AF48E9"/>
			<stop  offset="0.4381" style="stop-color:#DF49DC"/>
			<stop  offset="0.5" style="stop-color:#FF4AD4"/>
			<stop  offset="0.5619" style="stop-color:#FE5AB4"/>
			<stop  offset="0.6664" style="stop-color:#FE7184"/>
			<stop  offset="0.7657" style="stop-color:#FD845E"/>
			<stop  offset="0.8573" style="stop-color:#FC9143"/>
			<stop  offset="0.9382" style="stop-color:#FC9933"/>
			<stop  offset="1" style="stop-color:#FC9C2D"/>
		</linearGradient>
		<path class="st1" d="M256,0C114.8,0,0,114.8,0,256s114.8,256,256,256s256-114.8,256-256S397.2,0,256,0z M256,472.3
			c-119.3,0-216.3-97.1-216.3-216.3S136.7,39.7,256,39.7c119.3,0,216.3,97.1,216.3,216.3S375.3,472.3,256,472.3z"/>
	</g>
</g>
</svg>
