<svg xmlns="http://www.w3.org/2000/svg" viewBox="0 0 278.53 435.2"><defs><style>.cls-1{fill:#ffb031;}</style></defs><g id="Camada_2" data-name="Camada 2"><g id="Capa_1" data-name="Capa 1"><path d="M278.53,224.77a15.36,15.36,0,1,0-30.72,0,108.55,108.55,0,0,1-217.09,0,15.08,15.08,0,0,0-15.36-15.36A15.08,15.08,0,0,0,0,224.77c0,71.17,53.25,131.07,123.9,138.75v41H68.1a15.36,15.36,0,0,0,0,30.72H210.43a15.36,15.36,0,1,0,0-30.72H154.62v-41C225.28,355.84,278.53,295.94,278.53,224.77Z"/><path d="M139.26,0a85.65,85.65,0,0,0-85.5,85.5V224.26c0,47.61,38.4,85.5,85.5,86a85.66,85.66,0,0,0,85.51-85.5V85.5A85.66,85.66,0,0,0,139.26,0Z"/><path class="cls-1" d="M278.53,224.77a15.36,15.36,0,1,0-30.72,0,108.55,108.55,0,0,1-217.09,0,15.08,15.08,0,0,0-15.36-15.36A15.08,15.08,0,0,0,0,224.77c0,71.17,53.25,131.07,123.9,138.75v41H68.1a15.36,15.36,0,0,0,0,30.72H210.43a15.36,15.36,0,1,0,0-30.72H154.62v-41C225.28,355.84,278.53,295.94,278.53,224.77Z"/><path class="cls-1" d="M139.26,0a85.65,85.65,0,0,0-85.5,85.5V224.26c0,47.61,38.4,85.5,85.5,86a85.66,85.66,0,0,0,85.51-85.5V85.5A85.66,85.66,0,0,0,139.26,0Z"/></g></g></svg>