<svg xmlns="http://www.w3.org/2000/svg" xmlns:xlink="http://www.w3.org/1999/xlink" viewBox="0 0 278.53 435.2"><defs><style>.cls-1{fill:url(#Gradiente_sem_nome_336);}</style><linearGradient id="Gradiente_sem_nome_336" y1="217.6" x2="278.53" y2="217.6" gradientUnits="userSpaceOnUse"><stop offset="0" stop-color="#5845ff"/><stop offset="0.06" stop-color="#5e45fe"/><stop offset="0.14" stop-color="#6e46f9"/><stop offset="0.23" stop-color="#8946f2"/><stop offset="0.33" stop-color="#af48e9"/><stop offset="0.44" stop-color="#df49dc"/><stop offset="0.5" stop-color="#ff4ad4"/><stop offset="0.56" stop-color="#fe5ab4"/><stop offset="0.67" stop-color="#fe7184"/><stop offset="0.77" stop-color="#fd845e"/><stop offset="0.86" stop-color="#fc9143"/><stop offset="0.94" stop-color="#fc9933"/><stop offset="1" stop-color="#fc9c2d"/></linearGradient></defs><g id="Camada_2" data-name="Camada 2"><g id="Capa_1" data-name="Capa 1"><path d="M278.53,224.77a15.36,15.36,0,1,0-30.72,0,108.55,108.55,0,0,1-217.09,0,15.08,15.08,0,0,0-15.36-15.36A15.08,15.08,0,0,0,0,224.77c0,71.17,53.25,131.07,123.9,138.75v41H68.1a15.36,15.36,0,0,0,0,30.72H210.43a15.36,15.36,0,1,0,0-30.72H154.62v-41C225.28,355.84,278.53,295.94,278.53,224.77Z"/><path d="M139.26,0a85.65,85.65,0,0,0-85.5,85.5V224.26c0,47.61,38.4,85.5,85.5,86a85.66,85.66,0,0,0,85.51-85.5V85.5A85.66,85.66,0,0,0,139.26,0Z"/><path class="cls-1" d="M278.53,224.77a15.36,15.36,0,1,0-30.72,0,108.55,108.55,0,0,1-217.09,0,15.08,15.08,0,0,0-15.36-15.36A15.08,15.08,0,0,0,0,224.77c0,71.17,53.25,131.07,123.9,138.75v41H68.1a15.36,15.36,0,0,0,0,30.72H210.43a15.36,15.36,0,1,0,0-30.72H154.62v-41C225.28,355.84,278.53,295.94,278.53,224.77Z"/><path class="cls-1" d="M139.26,0a85.65,85.65,0,0,0-85.5,85.5V224.26c0,47.61,38.4,85.5,85.5,86a85.66,85.66,0,0,0,85.51-85.5V85.5A85.66,85.66,0,0,0,139.26,0Z"/></g></g></svg>